<svg version="1" xmlns="http://www.w3.org/2000/svg" width="333.333" height="333.333" viewBox="0 0 250.000000 250.000000"><path d="M122.8 39.6c-3.2 1.7-4.3 4.9-3.4 10.3.3 2.2.3 5.3 0 7-.6 2.7-1 3.1-4.1 3.1-1.9 0-4.7-.9-6.4-2.2-2.8-2.1-4-2.2-19.6-2.2-14.3.1-16.8.3-17.8 1.7-.7 1-3.6 2.2-6.6 2.7-2.9.6-5.6 1.5-5.9 2-.7 1.2-5.8 4.3-10.7 6.5-1.8.9-3.3 2.2-3.3 3 0 .8-.5 1.5-1.1 1.5-1.3 0-6.4 5.3-7.3 7.5-.3.8-1.2 1.5-1.9 1.5-.8 0-1.9 1.8-2.6 3.9-.6 2.1-1.8 4.1-2.6 4.4-.7.3-1.7 2.2-2.1 4.2-.3 1.9-1.3 3.9-2.1 4.3-3 1.7-2.9 43.4.1 46.5.7.7 1.6 2.9 2 4.8.3 2 1.5 4.4 2.6 5.4 1 .9 2.2 3 2.5 4.6.4 1.6 1.5 3.4 2.6 3.9 1 .6 1.9 1.5 1.9 1.9 0 1.5 5.4 7.1 6.7 7.1.7 0 1.3.9 1.3 2 0 1.3.7 2 1.9 2 1.1 0 2.3.9 2.6 2 .3 1.1 1 2 1.5 2s1.7.8 2.7 1.9c1 1 2.9 2.2 4.3 2.6 1.4.4 3.1 1.6 3.8 2.6.7 1.1 1.9 1.9 2.7 1.9.8 0 2.5 1.1 3.9 2.5s3.6 2.5 4.9 2.5c1.4 0 2.7.6 3 1.4.3.8 2.7 1.8 5.3 2.2 2.6.4 5.4 1.5 6.2 2.5 1.1 1.3 3 1.9 5.7 1.9s4.8.7 6.2 1.9c1.3 1.3 4.3 2.2 8.7 2.6 4.1.5 7.5 1.5 9 2.6 1.3 1.1 3.3 1.9 4.4 1.9 1.1 0 2.2.6 2.5 1.2.3 1 .9.8 2.4-.4 1.1-1 2.7-1.8 3.5-1.8.9 0 1.8-.6 2.1-1.4.4-.9 3.1-1.6 7.9-2.1 5.2-.5 7.8-1.3 9.1-2.6 1-1.1 2.8-1.9 4.1-1.9 4.4 0 8.6-1.2 8.6-2.5 0-.7 1.9-1.6 4.4-1.9 2.4-.4 4.7-1.3 4.9-2 .3-.8 2.4-1.7 4.6-2.1 2.4-.4 4.1-1.2 4.1-2 0-1.4 2.2-2.5 5.2-2.5 1.1 0 2.2-.8 2.5-2 .3-1.1 1.4-2 2.4-2s2.3-.9 2.9-2c.6-1.1 1.6-2 2.3-2 .7 0 2-.8 2.9-1.8.9-.9 4.1-4.2 7.2-7.2 3.1-2.9 5.6-5.9 5.6-6.5 0-.6.9-1.8 2-2.8 1.1-.9 2-2.4 2-3.2 0-.8.7-1.5 1.5-1.5s1.7-1.5 2.1-3.8c.4-2 1.3-4.2 2-4.7.7-.6 1.9-3.3 2.5-6 .7-2.8 1.8-6.4 2.5-8.2 1.9-4.4 1.9-28.1 0-30.8-.7-1.1-1.7-3.9-2.1-6.3-.4-2.4-1.3-4.6-2.1-4.9-.8-.3-1.9-2.3-2.4-4.4-.6-2.1-1.7-3.9-2.4-3.9-.8 0-1.7-1.1-2-2.5-.4-1.4-1.3-2.5-2.1-2.5s-1.5-.7-1.5-1.6c0-.9-.9-1.8-2-2.1-1.1-.3-2-1.2-2-1.9 0-.8-1.1-1.9-2.5-2.4s-2.5-1.6-2.5-2.5c0-.8-1.1-1.7-2.4-2.1-1.4-.3-2.7-1.2-3-2-.3-.8-1.2-1.4-2.1-1.4-1.1 0-1.5-1.1-1.5-4.4 0-3.6.4-4.6 2-5.1 1.1-.3 2-1.2 2-2s.9-1.7 2-2c1.5-.5 2-1.5 2-4.5 0-3.6-.2-3.8-3.7-4.2-2.1-.3-10.5-.3-18.7-.1-11.7.3-15.2.7-16 1.9-.6.8-3.5 1.7-6.6 2.1-3 .3-6.6 1.4-8 2.3-1.4 1-4.2 2.3-6.2 2.9-2 .7-4.2 1.9-4.8 2.7-.7.7-2.9 1.4-5 1.4h-3.8l-.3-8c-.5-9.1-1.3-10.5-5.1-8.4zm-11.3 27.6c1.4 1.3 2.5 2.6 2.5 3.1 0 .4-1.8 2.4-4 4.6-2.2 2.1-4 4.4-4 5 0 .6-.7 1.1-1.6 1.1-.8 0-2 1.3-2.5 3-.6 1.6-1.5 3-1.9 3-.4 0-1.5 1.7-2.4 3.7-1 2.1-2.3 4.9-3.1 6.3-1.7 2.8-1.9 6.6-.6 7.4.5.3 2.3.3 3.9 0 2.3-.5 3.2-1.3 3.7-3.4.3-1.5 1.5-3.7 2.5-4.8 1.1-1.2 2-3 2-4.2 0-1.1.6-2 1.3-2 .7 0 2-1.6 2.7-3.6.8-2 2.2-4 3.2-4.5s1.8-1.6 1.8-2.4c0-.8.7-1.5 1.5-1.5s1.9-.9 2.5-2c.6-1 2.6-2.7 4.5-3.6 1.9-.9 3.5-2 3.5-2.4 0-.5 1.9-1.1 4.3-1.5 2.3-.4 5-1.5 6.1-2.4 1.5-1.4 4.7-1.6 21.3-1.6 17 0 19.6.2 20.7 1.7.7.9 2.9 1.9 4.9 2.3 2.1.4 4.2 1.6 4.8 2.6.5 1.1 1.8 1.9 2.9 1.9 1.1 0 2.7 1.1 3.6 2.5.9 1.4 2.4 2.5 3.4 2.5s2 .9 2.3 2c.3 1.1 1.1 2 1.9 2 1.2.1 6.5 7.3 8 11.2.4 1 1.2 1.8 1.7 1.8s1.3 2 1.7 4.5c.3 2.5 1 4.5 1.4 4.5 2.2 0 3.2 6.6 2.9 18.8-.3 10.3-.7 13.4-2.1 14.8-.9 1.1-1.9 4-2.3 6.6-.4 2.6-1.3 5.3-2.1 5.9-.8.6-1.4 1.9-1.4 2.8 0 1-1.1 2.8-2.5 4.1-1.4 1.3-2.5 3.2-2.5 4.2 0 1.1-1.1 2.3-2.5 2.8s-2.5 1.6-2.5 2.4c0 .8-.9 1.8-2 2.1-1.1.3-2 1.3-2 2.1s-.7 1.4-1.5 1.4c-.9 0-2 1.1-2.5 2.5s-1.7 2.5-2.8 2.5c-1 0-2.8 1.1-4 2.5-1.2 1.4-3.1 2.5-4.2 2.5s-2 .6-2 1.4c0 .9-1.5 1.7-4 2.1-2.4.4-4.4 1.4-5 2.6-.8 1.3-2.1 1.9-4.6 1.9-2.7 0-3.7.5-4.1 1.9-.4 1.5-1.7 2.1-5.6 2.6-2.9.4-5.9 1.3-6.7 2-.8.7-3.9 1.6-6.9 2-2.9.4-6.9 1.6-8.8 2.7-2.8 1.7-4.6 2-11.1 1.6-4.8-.3-8.7-1.1-10.2-2.1-1.4-.9-4.9-1.9-7.8-2.3-2.9-.4-5.9-1.2-6.6-1.9-.7-.7-3.2-1.6-5.6-2-2.4-.4-5-1.4-5.8-2.1-.7-.8-3.4-1.9-5.9-2.5-2.4-.7-4.7-1.8-5-2.5-.3-.8-1.3-1.4-2.2-1.4-.9 0-3.2-1.1-5.1-2.5-1.9-1.4-3.9-2.5-4.6-2.5-.7 0-1.6-.9-1.9-2-.3-1.1-1.3-2-2.2-2-1.7 0-3.2-1.2-11-9.2-2.9-2.9-5.3-5.9-5.3-6.6 0-.6-.7-1.2-1.5-1.2s-1.7-1.1-2.1-2.5c-.3-1.4-1.2-2.5-1.9-2.5-.8 0-1.6-1.7-2-4-.4-2.2-1.3-4.4-2.2-4.8-.9-.5-1.8-3.5-2.4-7.8-.5-3.8-1.3-8.7-1.9-10.9-1.4-5.7-1.2-12.4.5-17 .8-2.2 1.4-5.4 1.5-7.2 0-1.9.7-3.7 1.9-4.5 1-.7 2.1-2.7 2.5-4.5.4-1.7 1.4-3.4 2.2-3.7.8-.3 1.4-1.2 1.4-2 0-.7 1.1-2.1 2.5-3 1.4-.9 2.5-2.3 2.5-3.1 0-.8.7-1.5 1.5-1.5.9 0 1.8-.7 2.2-1.6.3-.8 1.6-2 2.9-2.5 1.3-.4 2.4-1.5 2.4-2.4 0-.8.7-1.5 1.6-1.5.8 0 3.2-1.1 5.2-2.5s4.6-2.5 5.8-2.5c1.2 0 2.7-.7 3.4-1.4 1.6-2 6.9-2.5 24.3-2.1 13.9.3 14.9.5 17.2 2.7z"/></svg>